<?xml version="1.0" encoding="utf-8"?>
<!-- Generator: Adobe Illustrator 19.2.1, SVG Export Plug-In . SVG Version: 6.00 Build 0)  -->
<svg version="1.1" id="layer" xmlns="http://www.w3.org/2000/svg" xmlns:xlink="http://www.w3.org/1999/xlink" x="0px" y="0px"
	 viewBox="0 0 652 652" style="enable-background:new 0 0 652 652;" xml:space="preserve">
<style type="text/css">
	.st0{fill:#4B2F21;}
	.st1{fill:#E1251B;}
	.st2{fill:#FFFFFF;}
</style>
<path class="st0" d="M20,291.3h209.1c0,0,8-13.7,21.5-13.3c2.1,4.8,7.6,31.6,3.7,68.7c18.1-23.8,4.1-65.7,4.1-65.7s0-2.7,2.1-0.9
	c12.8,24.5,10.8,54.7,3.9,67.8c19.7-21.1,6.6-53.1,6.2-54.7s0-2.1,0-2.1H620v59.5H272.4c0,0-8.2,13.7-21.5,13.3
	c-7.6-21.1-5-60.7-3.4-68.7c-18.1,23.8-4.1,65.7-4.1,65.7s0.2,2.5-2.1,0.9c-12.8-24.5-10.8-54.7-3.9-67.8
	c-19.7,21.1-6.6,53.1-6.2,54.7c0.5,1.6,0,2.1,0,2.1H20V291.3z"/>
<path class="st1" d="M616.6,295H273.7c0,0,13.7,25.2,0,52.2h342.8V295z M23.9,346.9h203.8c0,0-13.7-25.2,0-52.2H23.9
	C23.9,294.7,23.9,346.9,23.9,346.9z"/>
<path class="st2" d="M181,303.9h13.7v3h-2.3c0,0-1.1-0.2-0.5,0.9c0.7,1.1,6.2,10.8,6.2,11.5c0.2,0.7,0.9,0,1.4-0.7
	c0.2-0.7,5-8.7,5.7-10.1c1.1-1.8-1.1-1.6-1.1-1.6h-1.6v-3h11v3h-1.6c0,0-1.1-0.2-2.1,1.4s-8.5,14.7-8.5,14.7s-0.5,0.7-0.5,1.8v9.2
	c0,0.9,0.9,0.7,0.9,0.7h3.2v3.2h-14.9v-3.2h3.4c0,0,0.9-0.2,0.9-1.4v-7.6c0-1.1-1.1-3.2-1.1-3.2s-6.9-11.9-7.8-13.7
	c-1.4-2.3-2.5-2.1-2.5-2.1h-1.6L181,303.9 M64.7,325.2c-1.4-4.1-4.8-5.3-7.6-5.7c3.2-0.7,6.4-3.7,6-8.9s-6.6-6.6-10.3-6.6H37.2v3
	h2.1c0,0,1.6-0.2,1.6,1.4v25.6c0,0.9-1.4,1.1-1.4,1.1h-2.3v3h15.6C65.3,337.6,66,329.3,64.7,325.2 M47.5,307.6
	c0-0.9,0.5-0.9,1.1-0.9s5.3-0.2,7.3,3.2c1.6,4.4-0.7,7.3-3.2,8c-3,0.9-4.1,0.9-4.1,0.9s-1.1,0.2-1.1-0.9V307.6 M56.4,333
	c-1.8,1.6-7.8,1.6-7.8,1.6s-1.1,0-1.1-0.9v-10.8c0-0.7,0.2-0.9,0.9-0.9s6.4-0.5,8.2,2.1C58.5,326.3,59.2,330.2,56.4,333
	 M101.8,334.6c-0.7,0-1.4,0-1.6-0.7c-0.2-0.9-11.2-30-11.2-30h-5.5c0,0-10.3,28.6-10.8,30c-0.5,1.1-1.4,0.9-1.4,0.9h-1.8v3.2h10.3
	v-3.2h-2.1c-0.9,0-1.1-0.7-0.7-1.6c0.2-0.9,2.3-7.1,2.3-7.1h11.2c0,0,2.5,7.1,3,7.8c0.2,0.9-0.2,0.7-0.2,0.7h-3.2v3.2h13.5v-3.2
	C103.6,334.6,101.8,334.6,101.8,334.6z M88,322.7h-6.4c-0.7,0-1.1,0-0.7-1.1c0.5-1.1,3.2-8.7,3.4-9.4c0.2-0.7,0.5-0.7,0.9,0
	c0.2,0.7,3.2,8.2,3.4,8.9C88.9,322,89.4,322.7,88,322.7z M139.5,334.6c-1.6-0.5-3,0-4.4-4.8c-1.4-4.8-3.2-6.6-4.4-7.6
	c-1.1-0.9-2.5-0.7-2.5-1.4c7.3-1.6,8.2-6,7.8-9.8c-0.7-5.5-5.5-7.3-12.1-7.3h-14.9v3h2.5c0,0,1.4,0,1.4,1.8V333
	c0,1.8-1.1,1.6-1.1,1.6h-2.3v3.2h13.5v-3.2H121c-1.8,0-1.6-1.1-1.6-2.1v-8.7c0-0.9,0.7-0.7,0.7-0.7h1.6c4.6,0,6.2,6.4,7.6,10.1
	s5.3,5,7.8,5s4.6-0.5,4.6-0.5v-3C141.8,334.8,141.1,335,139.5,334.6 M120.5,319.7c0,0-1.4,0.5-1.4-0.9V308c0-1.1,0.2-1.6,1.4-1.6
	c0.7,0,5.5-0.5,7.1,2.3c1.4,2.5,1.8,6.9-0.9,9.2C124.9,319.9,120.5,319.7,120.5,319.7 M178,334.6c-1.6-0.5-3,0-4.4-4.8
	c-1.4-4.8-3.2-6.6-4.4-7.6c-1.1-0.9-2.3-0.7-2.5-1.4c7.1-1.6,8.2-6,7.6-9.8c-0.7-5.5-5.5-7.3-12.1-7.3h-14.9v3h2.5
	c0,0,1.4,0,1.4,1.8V333c0,1.8-1.1,1.6-1.1,1.6h-2.3v3.2h14v-3.2h-2.1c-1.8,0-1.6-1.1-1.6-2.1v-8.7c0-0.9,0.7-0.7,0.7-0.7h1.6
	c4.6,0,6.2,6.4,7.6,10.1c1.4,3.7,5.3,5,7.8,5c2.5,0,4.6-0.5,4.6-0.5v-3C180.5,334.8,179.8,335,178,334.6 M159.2,319.9
	c0,0-1.4,0.5-1.4-0.9v-10.8c0-1.1,0.2-1.6,1.1-1.6c0.7,0,5.5-0.5,7.1,2.3c1.4,2.5,1.8,6.9-0.9,9.2
	C163.4,319.9,159.2,319.9,159.2,319.9 M580.6,337.8h14.9v-3.2h-3c0,0-1.1-0.2-1.1-2.1v-24.7c0-0.7,0.7-1.1,1.1-1.1h4.4
	c0.9,0,1.4,0.5,1.8,2.3c0.2,1.8,0.7,3.7,0.7,3.7h3.4v-8.9h-29.1v8.9h3.4c0,0,0.2-1.6,0.7-3.7c0.2-1.8,0.9-2.3,1.8-2.3h4.4
	c0.5,0,1.1,0.2,1.1,1.1v24.7c0,1.8-1.1,2.1-1.1,2.1h-3v3.2 M533.7,303.9h14.2v3h-2.3c0,0-1.1,0-1.1,1.4v17.4c0,3.4,1.1,8.2,6.9,8.2
	c6,0,8.9-1.8,8.9-9.4v-15.3c0-2.5-3.9-2.1-3.9-2.1v-3h11.2v3H565c0,0-1.4-0.2-1.4,1.8v16.5c0,5.3-0.5,11.2-9.6,12.8
	c-8.7,1.6-16.7-1.6-16.7-12.8v-16.3c0-1.4-0.5-1.8-1.4-1.8h-2.3V303.9 M437.9,334.6h11.2c0,0,1.1,0,1.4-1.8c0.2-1.8,0.5-4.6,0.5-4.6
	h3.7c0,0,0.5,5.5,0,9.6h-27v-3.2h2.5c0,0,1.4,0.2,1.4-1.8v-24c0-2.1-1.4-1.8-1.4-1.8h-2.5v-3h25.2c0,0,0.2,0.5,0.2,3.4v4.6h-3.7
	c-0.2-2.3-1.1-5-1.1-5h-9.2c0,0-1.1,0-1.1,1.6v10.1h5.5c0.9,0,1.6-0.2,1.8-1.6l0.5-2.7h3.2c0,0,0.2,1.4,0.2,6s-0.2,6.2-0.2,6.2h-3.2
	c0-2.5-0.9-4.4-0.9-4.4h-6.9L437.9,334.6 M364.2,306.6v-3h14.4v3h-2.7c0,0-0.9,0-0.9,1.6v26.3h9.4c0,0,1.1,0,1.4-1.8
	c0.2-1.8,0.7-5,0.7-5h3.7c0,0,0.5,6.2,0,10.1h-25.2v-3.2h2.5c0,0,1.4,0.2,1.4-1.8v-24c0-2.1-1.4-1.8-1.4-1.8h-3.2 M319.8,314
	c0,0,0.7-4.4-0.2-8.9c-1.1-0.5-7.6-2.7-14.2-1.6c-6.6,1.1-13.3,6.2-14,16.3c-0.7,10.1,5.7,15.8,13.3,18.1c6.4,1.8,14.7-1.6,14.7-1.6
	s0.7-3.9,0.2-8.5h-3.9l-1.1,5.7c-0.2,0.9-0.2,1.1-1.8,1.4s-11.9,1.6-14.2-11.5c-1.1-6.4,1.6-14.9,9.2-16.3c7.1-1.1,7.1,2.5,7.3,3.7
	c0.2,1.1,0.5,3.2,0.5,3.2H319.8 M396,306.4v-3h14.4v3h-2.7c0,0-0.9,0-0.9,1.6v26.3h9.2c0,0,1.1,0,1.4-1.8c0.2-1.8,0.7-5,0.7-5h3.7
	c0,0,0.5,6.2,0,10.1h-25.2v-3.2h2.5c0,0,1.4,0.2,1.4-1.8v-24.3c0-2.1-1.4-1.8-1.4-1.8H396 M357.1,334.6c-0.7,0-1.4,0-1.6-0.7
	c-0.2-0.9-11.2-30-11.2-30h-5.5c0,0-10.3,28.6-10.8,30c-0.5,1.1-1.4,0.9-1.4,0.9h-1.8v3.2h10.3v-3.2h-2.1c-0.9,0-1.1-0.7-0.7-1.6
	c0.2-0.9,2.3-7.1,2.3-7.1h11.2c0,0,2.5,7.1,2.7,7.8c0.2,0.9-0.2,0.7-0.2,0.7h-3.2v3.2h13.5v-3.2H357.1L357.1,334.6z M343.6,322.7
	h-6.4c-0.7,0-1.1,0-0.7-1.1s3.2-8.7,3.4-9.4c0.2-0.7,0.5-0.7,0.9,0c0.2,0.7,3.2,8.2,3.4,9.2C344.3,322,345,322.7,343.6,322.7
	L343.6,322.7z M528.4,334.6c-0.7,0-1.4,0-1.6-0.7c-0.2-0.9-11.2-30-11.2-30h-5.5c0,0-10.3,28.6-10.8,30c-0.5,1.1-1.4,0.9-1.4,0.9
	h-1.8v3.2h10.3v-3.2h-2.1c-0.9,0-1.1-0.7-0.7-1.6c0.2-0.9,2.3-7.1,2.3-7.1h11.2c0,0,2.5,7.1,2.7,7.8c0.2,0.9-0.2,0.7-0.2,0.7h-3.2
	v3.2H530v-3.2H528.4L528.4,334.6z M514.7,322.7h-6.4c-0.7,0-1.1,0-0.7-1.1s3.2-8.7,3.4-9.4c0.2-0.7,0.5-0.7,0.9,0
	c0.2,0.7,3.2,8.2,3.4,9.2C515.6,322,516,322.7,514.7,322.7L514.7,322.7z M491.1,325c-1.4-4.1-4.8-5.3-7.6-5.7
	c3.2-0.7,6.4-3.7,5.7-8.9c-0.5-5.3-6.6-6.6-10.3-6.6h-15.8v3h2.1c0,0,1.6-0.2,1.6,1.4v25.6c0,0.9-1.4,1.1-1.4,1.1h-2.3v3h15.6
	C491.8,337.3,492.4,329.1,491.1,325 M473.9,307.6c0-0.9,0.5-0.9,1.1-0.9c0.7,0,5.3-0.2,7.3,3.2c1.6,4.4-0.7,7.3-3.2,8
	c-3,0.7-4.1,0.9-4.1,0.9s-0.9,0.2-0.9-0.9v-10.3 M482.6,332.7c-1.8,1.6-7.8,1.6-7.8,1.6s-0.9,0.2-0.9-0.9v-10.8
	c0-0.7,0.2-0.9,0.9-0.9s6.4-0.5,8.2,2.1C484.9,326.3,485.6,330,482.6,332.7"/>
</svg>
