<?xml version="1.0" encoding="utf-8"?>
<!-- Generator: Adobe Illustrator 19.2.1, SVG Export Plug-In . SVG Version: 6.00 Build 0)  -->
<svg version="1.1" id="layer" xmlns="http://www.w3.org/2000/svg" xmlns:xlink="http://www.w3.org/1999/xlink" x="0px" y="0px"
	 viewBox="0 0 652 652" style="enable-background:new 0 0 652 652;" xml:space="preserve">
<style type="text/css">
	.st0{fill:#004777;}
	.st1{fill:#DE2726;}
	.st2{fill:#FFFFFF;}
</style>
<path class="st0" d="M41.8,423.8L35,455.9h6.5l2.8-13h16l1.3-5.9h-16l1.6-7.3h16.6l1.3-5.9H41.8z M100.3,438.3
	c0,10-7.5,18.3-18,18.3c-8.9,0-15.6-6-15.6-15c0-9.9,7.5-18.3,18-18.3C93.6,423.3,100.3,429.2,100.3,438.3 M73.3,441.1
	c0,5.7,3.9,9.3,9.3,9.3c6.4,0,10.9-5.4,10.9-11.7c0-5.6-3.9-9.3-9.3-9.3C77.8,429.4,73.3,434.8,73.3,441.1 M138.9,438.3
	c0,10-7.5,18.3-18,18.3c-8.9,0-15.6-6-15.6-15c0-9.9,7.5-18.3,18-18.3C132.2,423.3,138.9,429.2,138.9,438.3 M111.9,441.1
	c0,5.7,3.9,9.3,9.3,9.3c6.4,0,10.9-5.4,10.9-11.7c0-5.6-3.9-9.3-9.3-9.3C116.4,429.4,111.9,434.8,111.9,441.1 M160.2,423.8
	c9.2,0,14.8,5.7,14.8,13.5c0,10.3-7.2,18.6-19.7,18.6H142l6.8-32.1L160.2,423.8L160.2,423.8z M154.1,429.8l-4.3,20.1h6.2
	c7.7,0,12.2-5.1,12.2-11.8c0-4.9-2.8-8.3-8.8-8.3L154.1,429.8L154.1,429.8z M199.5,444.2l-2.5,11.7h-6.5l6.8-32.1h11.5
	c7,0,10.6,3.9,10.6,8.9c0,6.9-4.9,11.4-13.4,11.4H199.5z M202.6,429.7l-1.8,8.6h5.6c4.2,0,6.4-1.8,6.4-4.9c0-2.3-1.6-3.7-4.8-3.7
	H202.6L202.6,429.7z M240,423.8c6.9,0,10.7,3.9,10.7,8.7c0,4.6-2.8,10.2-11.8,10.6l8.8,12.8h-7.5l-8.3-12.8h-1.7l-2.7,12.8h-6.5
	l6.8-32.1H240L240,423.8z M233,429.7l-1.7,7.8h6.8c4.7,0,5.9-2.3,5.9-4.4c0-2.1-1.7-3.4-4.8-3.4L233,429.7L233,429.7z M288,438.3
	c0,10-7.5,18.3-18,18.3c-8.9,0-15.6-6-15.6-15c0-9.9,7.5-18.3,18-18.3C281.4,423.3,288,429.2,288,438.3 M261.1,441.1
	c0,5.7,3.9,9.3,9.3,9.3c6.4,0,10.9-5.4,10.9-11.7c0-5.6-3.9-9.3-9.3-9.3C265.5,429.4,261.1,434.8,261.1,441.1 M316.4,442.9h-16
	l-2.8,13h-6.5l6.8-32.1h23.1l-1.3,5.9h-16.6l-1.6,7.3h16L316.4,442.9z M346.5,442.7h-16.2l-1.6,7.4h17.1l-1.3,5.9H321l6.8-32.1h23.4
	l-1.3,5.9h-16.8l-1.5,7.1h16.2L346.5,442.7z M377.9,432.2c-3.2-2.3-7-3-9.7-3c-4.2,0-5.9,2-5.9,4c0,2.2,2.2,3.1,5,3.6l1.9,0.4
	c5.4,1,9.5,3.5,9.5,8.6c0,6.6-5.6,10.8-13.7,10.8c-3.9,0-9.9-1.2-13.7-4.5l3.7-5.1c3.1,2.8,7.6,3.7,10.4,3.7c3.6,0,6.4-1.4,6.4-4
	c0-2-1.9-3-5.6-3.6l-2-0.4c-5.2-1-8.8-3.8-8.8-8.5c0-5.8,4.5-10.8,13-10.8c3.8,0,8.4,0.7,12.9,3.8L377.9,432.2z M408.9,432.2
	c-3.2-2.3-7-3-9.7-3c-4.2,0-5.9,2-5.9,4c0,2.2,2.2,3.1,5,3.6l1.9,0.4c5.4,1,9.5,3.5,9.5,8.6c0,6.6-5.6,10.8-13.7,10.8
	c-3.9,0-9.9-1.2-13.7-4.5l3.7-5.1c3.1,2.8,7.6,3.7,10.4,3.7c3.6,0,6.4-1.4,6.4-4c0-2-1.9-3-5.6-3.6l-2-0.4c-5.2-1-8.8-3.8-8.8-8.5
	c0-5.8,4.5-10.8,13-10.8c3.8,0,8.4,0.7,12.9,3.8L408.9,432.2z M420.9,455.9h-6.5l6.8-32.1h6.5L420.9,455.9z M464.5,438.3
	c0,10-7.5,18.3-18,18.3c-8.9,0-15.6-6-15.6-15c0-9.9,7.5-18.3,18-18.3C457.8,423.3,464.5,429.2,464.5,438.3 M437.6,441.1
	c0,5.7,3.9,9.3,9.3,9.3c6.4,0,10.9-5.4,10.9-11.7c0-5.6-3.9-9.3-9.3-9.3C442,429.4,437.6,434.8,437.6,441.1 M496.1,455.9h-6
	l-11.2-22.1l-4.7,22.1h-6.5l6.8-32.1h6l11.2,22.1l4.7-22.1h6.5L496.1,455.9z M533.7,455.9h-6.5l-1.2-7.5h-13.4l-4.3,7.5h-7
	l19.1-32.1h7.8L533.7,455.9z M516,442.6h9.1l-1.9-12.3L516,442.6z M546.7,450h16.5l-1.3,6h-23l6.8-32.1h6.5L546.7,450z M593.5,432.2
	c-3.2-2.3-7-3-9.7-3c-4.2,0-5.9,2-5.9,4c0,2.2,2.2,3.1,5,3.6l1.9,0.4c5.4,1,9.5,3.5,9.5,8.6c0,6.6-5.6,10.8-13.7,10.8
	c-3.9,0-9.9-1.2-13.7-4.5l3.7-5.1c3.1,2.8,7.6,3.7,10.4,3.7c3.6,0,6.4-1.4,6.4-4c0-2-1.9-3-5.6-3.6l-2-0.4c-5.2-1-8.8-3.8-8.8-8.5
	c0-5.8,4.4-10.8,13-10.8c3.8,0,8.4,0.7,12.9,3.8L593.5,432.2z"/>
<path class="st1" d="M171.5,330.7c-6.4-0.6-13.7,2-19.8,7l1.2-6h-20.4L121.9,390h20.6c0,0,6.3-34.4,7-37.9c2.3-2.7,5.5-4.4,8.4-4.4
	c1.5,0,2.8,0.5,3.6,1.4c1.1,1.3,1.5,3.4,1,6.1l-6.3,34.8h20.5c0,0,6.2-34,6.3-34.6c1.3-7.6,2-15.4-1.9-20.2
	C179,332.6,175.8,331.1,171.5,330.7 M396.8,351c-2.2-1.3-4.8-1.8-8-1.8c-5.4,0-9.9,2.5-11.6,6.6l-6.2,34.3h-20.3l10.6-58.5h20.3
	l-0.9,5.2c3.1-4,8.5-6.5,14-6.5c2.8,0,4.9,0.5,5.7,1L396.8,351z M227.2,375.2c-1.2,0.5-4.5,1.1-8,1.1c-11.1,0-13.5-5.9-13.5-10.9
	c0-6.1,1.7-10.9,5.1-14.2c4.5-4.4,10.8-5,14.1-5c3.4,0,5.8,0.6,6.8,1.2l0.5,0.3l2.7-14.7c-2.5-1.4-6.8-2.2-11.3-2.2
	c-22,0-38,15.1-38.1,35.9c-0.1,15.5,10,24.1,28.4,24.1c3.5,0,7.9-0.7,10.8-1.3L227.2,375.2z M289.3,335.2c-2.1-2.6-5.3-4.1-9.6-4.5
	c-6.4-0.6-13.3,2-19.5,7l6.4-35.3h-20.3L230.4,390h20.5l0.1-0.4c0.1-0.3,5.8-34.1,6.6-37.5c2.3-2.7,5.7-4.4,8.5-4.4
	c1.5,0,2.8,0.5,3.6,1.4c1.1,1.3,1.5,3.4,1,6.1l-5.8,34.8h19.7l7.3-40.5C292.5,344,292.1,338.8,289.3,335.2 M348.1,339
	c-4.6-5.3-11.3-8.3-18.9-8.4l-0.4,0h0h0l-0.4,0c-7.7,0.1-15.5,3.1-22,8.4c-7,5.7-10.7,13.7-12.2,22c-1.5,8.3-0.7,16.3,4.2,22
	c4.6,5.3,11.3,8.3,18.9,8.4l0.4,0h0h0l0.4,0c7.7-0.1,15.5-3.1,22-8.4c7-5.7,10.7-13.7,12.2-22C353.8,352.8,353,344.8,348.1,339
	 M333.6,360.3c0,0.1,0,0.2,0,0.3c-1.6,8.4-5.9,17.3-13.3,17.3h0h0c-7.5,0-8.6-8.9-7.1-17.3c0-0.1,0-0.2,0.1-0.3c0-0.1,0-0.2,0-0.3
	c1.6-8.4,5.9-17.3,13.4-17.3h0h0c7.5,0,8.6,8.9,7.1,17.3C333.6,360.1,333.6,360.2,333.6,360.3 M79.2,357.6c-1.6-0.2-3.5-0.5-5.6-0.8
	l17.2-31.4l2.8,25.4C94.8,357.2,88.9,359,79.2,357.6 M118.7,389.9l-9.6-87.5H83.5l-28.7,51.8c-1.6-0.2-2.7-0.4-3.4-0.5
	c-24.5-3.6-29.5,17.5-29.5,17.5s5.6-6.2,21-3.9c1.2,0.2,2.7,0.4,4.3,0.6l-12.3,22.1h20.5l10.7-19.3c2.9,0.4,5.2,0.7,6.1,0.8
	c15.1,1.9,20.5-2,22.9-7.3l2.9,25.8L118.7,389.9L118.7,389.9z M404.5,331.6h7.9v1.5h-3.1v8.3h-1.7v-8.3h-3.1V331.6z M421.3,331.6
	l-2.6,7.7h0l-2.7-7.7h-2.4v9.8h1.6v-7.6h0l2.7,7.6h1.4l2.7-7.6h0v7.6h1.6v-9.8H421.3z M200.4,195.6c0-6.6,8-5.5,3.5,8.7
	C203.8,204.2,200.4,200.7,200.4,195.6 M242.3,251.4c-2.1-5.8-5-11-8.3-15.8c-6.6-9.6-17.1-18.5-25-26.3c1-5.6,2.3-10.4,1.9-14
	c-0.4-4.2-3-9-8.1-8.8c-4.9,0.2-7,4.6-7.3,8.7c-0.5,8.8,5.9,17.3,5.9,17.3s-13.6,52.8-18.4,70c-0.4,1.5,0.8,1.8,2.4,1.9
	c2.1,0,9.9-0.7,10.9-4.7c0.8-3.1,5.9-32.6,10.9-60.3c0,0,10.5,11,14.7,17.1c5.4,7.9,8.4,13.8,9.9,18.6c4.3,13.6,1.7,29-8,39.6
	c-9.7,10.6-24.7,15.4-38.8,14.1c-14.1-1.3-28.2-8.6-32.7-22.8c-3-9.6-1.7-20.2,2.6-29.1c10.5-21.8,35.3-37.7,37.9-39.6
	c0.9-0.7,0.9-1.2,0.6-1.6c-0.2-0.3-0.7-0.4-1.5,0c-0.4,0.2-2.3,1.4-2.6,1.6c-5.6,3.5-7.7,5-11.9,8.1c-6.6,4.7-12.8,9.9-18.3,15.8
	c-3.3,3.6-6.6,8-9.4,12.9c-6.9,11.9-9.2,26.2-4.6,39.3c6.2,17.5,23.9,27.1,41.6,28.4c17.5,1.2,35.5-5.7,46.9-19.2
	C245.6,288.4,248.6,268.7,242.3,251.4 M158.1,264.9c-2,6.5-2.1,13.3-0.2,19.3c3.8,12.3,16.8,17.8,27.7,18.8
	c12.9,1.2,25.9-3.5,34-12.2c6.3-6.9,9.2-16.3,8.4-25.9h-8.5c-0.9,0-1.4,1-0.8,1.7l1.8,2.2c0.3,0.4,0.3,0.9,0.1,1.3
	c-1,1.5-2.8,3.8-4.4,5.4c-8.2,8.4-20,12.2-31.5,11.5c-8.5-0.7-16.3-3.1-20.8-11c-1.2-2.1-1.9-5.2-1.9-6c0-0.3,0-0.7,0.2-0.9l1.9-2.3
	c0.7-0.9,0.3-1.8-1-1.8L158.1,264.9C158.1,264.9,158.1,264.9,158.1,264.9z"/>
<path class="st0" d="M565.5,390.1H451.2l12.5-79c4.6-26.2,19.2-37.9,45.8-37.9h112.5l-13.6,84C604.1,382.3,587.9,390.1,565.5,390.1"
	/>
<path class="st2" d="M499.1,360.9l7.9-44.6h26.8l2.5-14.2h-42.8L483.1,361L499.1,360.9z M508,327.7l6.5,14.2h14.8l2.5-14.2H508z
	 M567,302.2h-26.2L530.4,361h16l7.8-44.4h0l0-0.1h10.1c3.9,0,6.6,1.4,5.9,5.3c-0.7,3.8-4,6-7.9,6h-5.6l-2.5,14h6
	c14.8,0,24-8.1,26.1-20C588.5,309.7,582,302.2,567,302.2"/>
</svg>
