<?xml version="1.0" encoding="UTF-8"?>
<svg xmlns="http://www.w3.org/2000/svg" xmlns:xlink="http://www.w3.org/1999/xlink" width="472.8pt" height="517.1pt" viewBox="0 0 472.8 517.1" version="1.1">
<defs>
<clipPath id="clip1">
  <path d="M 0 1 L 472.800781 1 L 472.800781 517.101563 L 0 517.101563 Z M 0 1 "/>
</clipPath>
</defs>
<g id="surface1">
<g clip-path="url(#clip1)" clip-rule="nonzero">
<path style=" stroke:none;fill-rule:evenodd;fill:rgb(0.392151%,58.789063%,22.75238%);fill-opacity:1;" d="M 297.058594 5.726563 C 314.597656 -0.0859375 334.566406 0.285156 351.246094 8.625 C 362.628906 14.09375 372.078125 23.835938 376.289063 35.835938 C 382.367188 52.617188 377.898438 72.394531 365.6875 85.304688 C 355.9375 95.945313 342.578125 102.074219 329.925781 108.476563 C 306.90625 119.6875 283.097656 130.90625 264.878906 149.375 C 253.6875 160.15625 245.296875 173.574219 239.46875 187.925781 C 232.957031 160.484375 229.546875 132.09375 231.496094 103.894531 C 233.179688 81.574219 238.40625 58.664063 251.679688 40.214844 C 262.757813 24.425781 278.609375 11.714844 297.058594 5.726563 Z M 88.609375 26.386719 C 101.96875 21.695313 116.769531 24.636719 129.289063 30.457031 C 153.679688 42.015625 172.246094 62.964844 186.367188 85.496094 C 199.269531 105.707031 206.757813 128.804688 211.90625 152.074219 C 216.085938 171.074219 218.539063 190.484375 218.636719 209.957031 C 191.328125 188.4375 168.425781 161.945313 146.90625 134.796875 C 141.15625 127.816406 136.207031 120.1875 130.316406 113.355469 C 129.9375 113.355469 129.199219 113.355469 128.828125 113.355469 C 130.457031 120.367188 133.488281 126.945313 136.4375 133.476563 C 143.558594 148.457031 152.148438 162.707031 161.609375 176.316406 C 172.027344 191.066406 183.539063 205.234375 197.429688 216.867188 C 165.808594 209.164063 137.476563 191.085938 114.078125 168.835938 C 92.789063 148.695313 75.9375 123.4375 67.496094 95.246094 C 63.4375 81.074219 61.417969 65.707031 65.476563 51.304688 C 68.578125 39.90625 77.347656 30.15625 88.609375 26.386719 Z M 322.789063 144.375 C 330.4375 143.296875 338.769531 144.097656 345.289063 148.554688 C 352.976563 153.59375 357.027344 163.117188 356.449219 172.164063 C 356.136719 179.617188 352.289063 186.464844 347.257813 191.785156 C 340.90625 198.496094 332.808594 203.195313 324.597656 207.253906 C 307.648438 215.335938 289.449219 221.226563 270.699219 223.007813 C 264.96875 223.386719 258.886719 223.777344 253.527344 221.34375 C 249.15625 219.246094 247.226563 213.824219 248.496094 209.277344 C 250.226563 201.964844 254.707031 195.707031 259.007813 189.6875 C 269.449219 175.847656 282.585938 164.105469 297.296875 154.945313 C 305.148438 150.105469 313.546875 145.734375 322.789063 144.375 Z M 369.179688 201.476563 C 352.019531 250.804688 312.078125 291.9375 262.796875 309.554688 C 236.976563 318.886719 208.917969 321.605469 181.726563 318.105469 C 155.96875 314.714844 130.746094 304.847656 110.699219 288.125 C 96.617188 276.457031 85.335938 261.355469 78.40625 244.414063 C 74.457031 234.59375 71.617188 223.753906 73.839844 213.1875 C 74.996094 207.546875 79.585938 202.355469 85.566406 202.015625 C 95.628906 201.1875 104.597656 206.824219 112.636719 212.144531 C 161.179688 244.246094 222.328125 256.835938 279.507813 245.644531 C 312.566406 239.1875 344.296875 224.375 369.179688 201.476563 Z M 195.476563 390.1875 C 204.316406 378.046875 222.839844 376.074219 235.199219 383.746094 C 242.808594 388.585938 247.378906 397.34375 247.96875 406.246094 C 242.738281 406.246094 237.507813 406.265625 232.277344 406.226563 C 231.679688 402.804688 230.519531 399.277344 227.757813 396.984375 C 221.925781 391.707031 211.367188 392.925781 207.386719 399.886719 C 204.128906 405.503906 205.386719 412.285156 205.148438 418.476563 C 210.058594 418.496094 214.96875 418.484375 219.878906 418.484375 C 219.898438 423.15625 219.898438 427.824219 219.878906 432.496094 C 214.96875 432.496094 210.058594 432.496094 205.148438 432.496094 C 205.117188 450.824219 205.15625 469.164063 205.128906 487.503906 C 199.808594 487.484375 194.476563 487.503906 189.148438 487.496094 C 189.117188 469.175781 189.117188 450.84375 189.148438 432.527344 C 184.558594 432.464844 179.976563 432.503906 175.386719 432.496094 C 175.378906 427.824219 175.378906 423.15625 175.398438 418.484375 C 179.96875 418.484375 184.546875 418.496094 189.128906 418.484375 C 188.988281 408.804688 189.21875 398.144531 195.476563 390.183594 Z M 0.207031 448.804688 C 0.0390625 427.535156 0.15625 406.253906 0.148438 384.984375 C 5.648438 384.996094 11.136719 384.984375 16.636719 384.996094 C 16.648438 405.074219 16.617188 425.15625 16.648438 445.246094 C 16.617188 452.015625 18.066406 459.066406 22.359375 464.484375 C 31.878906 476.765625 53.097656 476.585938 62.539063 464.304688 C 66.507813 459.1875 68.046875 452.617188 68.117188 446.234375 C 68.15625 425.824219 68.109375 405.40625 68.148438 384.984375 C 73.636719 384.996094 79.136719 384.984375 84.636719 384.996094 C 84.628906 405.753906 84.65625 426.527344 84.628906 447.285156 C 84.597656 458.535156 80.46875 469.984375 72.179688 477.785156 C 58.148438 490.867188 35.429688 492.324219 19.046875 482.945313 C 7.089844 476.066406 0.429688 462.335938 0.207031 448.804688 Z M 340.398438 384.996094 C 345.636719 384.984375 350.878906 384.996094 356.128906 384.984375 C 356.15625 419.15625 356.15625 453.324219 356.128906 487.496094 C 350.878906 487.496094 345.628906 487.507813 340.386719 487.496094 C 340.386719 453.324219 340.367188 419.164063 340.398438 384.996094 Z M 424.636719 384.996094 C 429.96875 384.984375 435.296875 384.984375 440.636719 384.996094 C 440.636719 419.164063 440.636719 453.324219 440.636719 487.496094 C 435.988281 487.507813 431.347656 487.484375 426.707031 487.507813 C 426.246094 485.035156 425.839844 482.566406 425.46875 480.097656 C 414.128906 492.125 393.238281 491.535156 381.417969 480.515625 C 365.96875 466.503906 366.089844 439.15625 381.617188 425.246094 C 393.207031 414.636719 413.1875 413.875 424.667969 425.027344 C 424.597656 411.6875 424.648438 398.335938 424.636719 384.996094 Z M 401.167969 432.003906 C 397.15625 432.957031 393.507813 435.304688 390.898438 438.484375 C 383.207031 447.707031 384.4375 463.347656 394.207031 470.636719 C 401.328125 476.15625 412.21875 475.554688 418.769531 469.394531 C 427.835938 461.125 427.835938 445.347656 419.097656 436.835938 C 414.449219 432.316406 407.46875 430.4375 401.167969 432.003906 Z M 448.636719 384.996094 C 451.96875 384.984375 455.296875 384.984375 458.636719 384.996094 C 458.636719 385.554688 458.636719 386.675781 458.636719 387.246094 C 457.378906 387.246094 456.128906 387.246094 454.878906 387.265625 C 454.886719 390.425781 454.886719 393.585938 454.886719 396.753906 C 454.257813 396.753906 453.019531 396.746094 452.386719 396.746094 C 452.378906 393.585938 452.378906 390.425781 452.386719 387.265625 C 451.136719 387.246094 449.878906 387.234375 448.636719 387.234375 C 448.636719 386.675781 448.636719 385.554688 448.636719 384.996094 Z M 460.386719 385.007813 C 461.238281 384.996094 462.949219 384.984375 463.796875 384.984375 C 464.71875 387.515625 465.628906 390.066406 466.667969 392.566406 C 467.578125 390.035156 468.496094 387.496094 469.46875 384.984375 C 470.328125 384.984375 472.027344 384.996094 472.878906 384.996094 C 472.898438 388.875 472.886719 392.753906 472.886719 396.644531 C 472.367188 396.726563 471.328125 396.867188 470.808594 396.945313 C 470.589844 393.945313 470.617188 390.945313 470.4375 387.957031 C 469.128906 390.804688 469.347656 395.277344 466.578125 396.945313 C 464.007813 395.15625 464.21875 391.046875 462.6875 388.324219 C 462.65625 391.1875 462.679688 394.054688 462.476563 396.925781 C 461.957031 396.855469 460.90625 396.714844 460.386719 396.65625 C 460.386719 392.765625 460.378906 388.886719 460.386719 385.007813 Z M 115.359375 425.765625 C 126.726563 413.726563 147.597656 414.414063 159.425781 425.4375 C 174.609375 439.324219 174.71875 466.226563 159.589844 480.195313 C 148.117188 491.335938 127.9375 492.015625 116.109375 481.054688 C 116.1875 493.027344 116.117188 505.003906 116.148438 516.984375 C 110.898438 517.027344 105.648438 516.996094 100.398438 516.996094 C 100.386719 484.164063 100.378906 451.324219 100.398438 418.484375 C 104.957031 418.496094 109.527344 418.464844 114.097656 418.503906 C 114.519531 420.925781 114.949219 423.335938 115.359375 425.765625 Z M 131.066406 431.886719 C 126.507813 432.804688 122.328125 435.484375 119.566406 439.234375 C 112.679688 448.304688 113.917969 462.765625 122.878906 470.035156 C 129.277344 475.574219 139.398438 475.886719 146.199219 470.867188 C 156.566406 463.515625 157.777344 446.886719 149.21875 437.695313 C 144.789063 432.695313 137.578125 430.425781 131.066406 431.886719 Z M 279.886719 421.496094 C 288.859375 416.367188 299.976563 415.746094 309.71875 418.90625 C 315.539063 420.867188 320.867188 424.734375 323.828125 430.207031 C 327.667969 437.445313 327.46875 447.175781 321.90625 453.515625 C 318.019531 457.847656 312.367188 460.15625 306.769531 461.304688 C 297.238281 463.035156 287.257813 462.476563 278.046875 459.414063 C 279.226563 465.054688 282.835938 470.234375 288.167969 472.636719 C 297.738281 477.164063 309.769531 474.355469 316.917969 466.695313 C 320.109375 470.195313 323.457031 473.574219 326.449219 477.265625 C 321.027344 483.515625 312.796875 487.445313 304.546875 488.464844 C 296.246094 489.316406 287.476563 488.796875 279.925781 484.925781 C 272.398438 481.265625 266.617188 474.355469 264.148438 466.386719 C 261.6875 458.617188 261.519531 450.136719 263.617188 442.265625 C 265.988281 433.546875 271.886719 425.765625 279.886719 421.496094 Z M 286.019531 434.566406 C 281.9375 437.414063 279.40625 441.957031 278.246094 446.714844 C 285.109375 449.027344 292.539063 449.503906 299.726563 448.824219 C 303.566406 448.375 307.976563 447.085938 309.835938 443.367188 C 311.597656 439.527344 309.378906 434.824219 305.648438 433.136719 C 299.507813 430.117188 291.609375 430.515625 286.019531 434.566406 Z M 232.648438 418.484375 C 237.886719 418.496094 243.136719 418.476563 248.386719 418.496094 C 248.40625 441.496094 248.386719 464.484375 248.398438 487.484375 C 243.148438 487.507813 237.886719 487.496094 232.636719 487.496094 C 232.636719 464.496094 232.628906 441.484375 232.648438 418.484375 Z M 232.648438 418.484375 "/>
</g>
</g>
</svg>
